<svg xmlns="http://www.w3.org/2000/svg" viewBox="0 0 1920 7680"><defs><style>.cls-1{fill:#fff;}</style></defs><g id="bg"><rect width="1920" height="7680"/></g><g id="_1" data-name="1"><path class="cls-1" d="M908.34,48.27c2.57,0,2.57-4,0-4s-2.58,4,0,4Z"/><path class="cls-1" d="M645.18,60.55c2.57,0,2.58-4,0-4s-2.58,4,0,4Z"/><path class="cls-1" d="M1006.58,348.27c2.58,0,2.58-4,0-4s-2.58,4,0,4Z"/><path class="cls-1" d="M1217.11,544.76c2.57,0,2.58-4,0-4s-2.58,4,0,4Z"/><path class="cls-1" d="M1299.56,157c2.58,0,2.58-4,0-4s-2.57,4,0,4Z"/><path class="cls-1" d="M1482,55.28c2.57,0,2.58-4,0-4s-2.58,4,0,4Z"/><path class="cls-1" d="M1601.32,151.77c2.57,0,2.58-4,0-4s-2.58,4,0,4Z"/><path class="cls-1" d="M1601.32,151.77c2.57,0,2.58-4,0-4s-2.58,4,0,4Z"/><path class="cls-1" d="M1878.51,25.46c2.58,0,2.58-4,0-4s-2.58,4,0,4Z"/><path class="cls-1" d="M1518.86,516.69c2.58,0,2.58-4,0-4s-2.58,4,0,4Z"/><path class="cls-1" d="M1431.14,736c2.58,0,2.58-4,0-4s-2.57,4,0,4Z"/><path class="cls-1" d="M1259.21,881.6c2.58,0,2.58-4,0-4s-2.57,4,0,4Z"/><path class="cls-1" d="M464.48,816.69c2.57,0,2.57-4,0-4s-2.58,4,0,4Z"/><path class="cls-1" d="M164.48,881.6c2.57,0,2.57-4,0-4s-2.58,4,0,4Z"/><path class="cls-1" d="M96.06,923.7c2.57,0,2.57-4,0-4s-2.58,4,0,4Z"/><path class="cls-1" d="M41.67,813.18c2.57,0,2.58-4,0-4s-2.58,4,0,4Z"/><path class="cls-1" d="M394.3,334.23c2.58,0,2.58-4,0-4s-2.58,4,0,4Z"/><path class="cls-1" d="M520.62,164.06c2.57,0,2.58-4,0-4s-2.58,4,0,4Z"/><path class="cls-1" d="M469.74,448.27c2.57,0,2.58-4,0-4s-2.58,4,0,4Z"/><path class="cls-1" d="M80.27,367.56c2.57,0,2.57-4,0-4s-2.58,4,0,4Z"/><path class="cls-1" d="M168,141.25c2.57,0,2.57-4,0-4s-2.58,4,0,4Z"/><path class="cls-1" d="M64.48,181.6c2.57,0,2.57-4,0-4s-2.58,4,0,4Z"/><path class="cls-1" d="M248.69,22c2.57,0,2.58-4,0-4s-2.58,4,0,4Z"/><path class="cls-1" d="M575,532.48c2.58,0,2.58-4,0-4s-2.57,4,0,4Z"/><path class="cls-1" d="M646.93,834.23c2.58,0,2.58-4,0-4s-2.58,4,0,4Z"/><path class="cls-1" d="M989,951.77c2.57,0,2.58-4,0-4s-2.58,4,0,4Z"/><path class="cls-1" d="M859.21,741.25c2.58,0,2.58-4,0-4s-2.57,4,0,4Z"/><path class="cls-1" d="M1859.21,671.07c2.58,0,2.58-4,0-4s-2.57,4,0,4Z"/><path class="cls-1" d="M1675,939.49c2.58,0,2.58-4,0-4s-2.57,4,0,4Z"/><path class="cls-1" d="M1434.65,953.53c2.58,0,2.58-4,0-4s-2.58,4,0,4Z"/><path class="cls-1" d="M1843.42,265.81c2.58,0,2.58-4,0-4s-2.57,4,0,4Z"/><path class="cls-1" d="M1745.18,430.72c2.57,0,2.58-4,0-4s-2.58,4,0,4Z"/><path class="cls-1" d="M1208.34,300.9c2.57,0,2.57-4,0-4s-2.58,4,0,4Z"/><path class="cls-1" d="M934.65,229c2.58,0,2.58-4,0-4s-2.58,4,0,4Z"/><path class="cls-1" d="M815.35,69.32c2.58,0,2.58-4,0-4s-2.57,4,0,4Z"/><path class="cls-1" d="M429.39,44.76c2.57,0,2.58-4,0-4s-2.58,4,0,4Z"/><path class="cls-1" d="M1875,965.06c3.86,0,3.87-6,0-6s-3.86,6,0,6Z"/><path class="cls-1" d="M597.81,961.55c3.86,0,3.87-6,0-6s-3.87,6,0,6Z"/><path class="cls-1" d="M1241.67,977.34c3.86,0,3.87-6,0-6s-3.87,6,0,6Z"/><path class="cls-1" d="M139.92,437c3.86,0,3.86-6,0-6s-3.87,6,0,6Z"/><path class="cls-1" d="M908.34,1062.27c2.57,0,2.57-4,0-4s-2.58,4,0,4Z"/><path class="cls-1" d="M645.18,1074.55c2.57,0,2.58-4,0-4s-2.58,4,0,4Z"/><path class="cls-1" d="M1006.58,1362.27c2.58,0,2.58-4,0-4s-2.58,4,0,4Z"/><path class="cls-1" d="M1217.11,1558.76c2.57,0,2.58-4,0-4s-2.58,4,0,4Z"/><path class="cls-1" d="M1299.56,1171c2.58,0,2.58-4,0-4s-2.57,4,0,4Z"/><path class="cls-1" d="M1482,1069.28c2.57,0,2.58-4,0-4s-2.58,4,0,4Z"/><path class="cls-1" d="M1601.32,1165.77c2.57,0,2.58-4,0-4s-2.58,4,0,4Z"/><path class="cls-1" d="M1601.32,1165.77c2.57,0,2.58-4,0-4s-2.58,4,0,4Z"/><path class="cls-1" d="M1878.51,1039.46c2.58,0,2.58-4,0-4s-2.58,4,0,4Z"/><path class="cls-1" d="M1518.86,1530.69c2.58,0,2.58-4,0-4s-2.58,4,0,4Z"/><path class="cls-1" d="M1431.14,1750c2.58,0,2.58-4,0-4s-2.57,4,0,4Z"/><path class="cls-1" d="M1259.21,1895.6c2.58,0,2.58-4,0-4s-2.57,4,0,4Z"/><path class="cls-1" d="M464.48,1830.69c2.57,0,2.57-4,0-4s-2.58,4,0,4Z"/><path class="cls-1" d="M164.48,1895.6c2.57,0,2.57-4,0-4s-2.58,4,0,4Z"/><path class="cls-1" d="M96.06,1937.7c2.57,0,2.57-4,0-4s-2.58,4,0,4Z"/><path class="cls-1" d="M41.67,1827.18c2.57,0,2.58-4,0-4s-2.58,4,0,4Z"/><path class="cls-1" d="M394.3,1348.23c2.58,0,2.58-4,0-4s-2.58,4,0,4Z"/><path class="cls-1" d="M520.62,1178.06c2.57,0,2.58-4,0-4s-2.58,4,0,4Z"/><path class="cls-1" d="M469.74,1462.27c2.57,0,2.58-4,0-4s-2.58,4,0,4Z"/><path class="cls-1" d="M80.27,1381.56c2.57,0,2.57-4,0-4s-2.58,4,0,4Z"/><path class="cls-1" d="M168,1155.25c2.57,0,2.57-4,0-4s-2.58,4,0,4Z"/><path class="cls-1" d="M64.48,1195.6c2.57,0,2.57-4,0-4s-2.58,4,0,4Z"/><path class="cls-1" d="M248.69,1036c2.57,0,2.58-4,0-4s-2.58,4,0,4Z"/><path class="cls-1" d="M575,1546.48c2.58,0,2.58-4,0-4s-2.57,4,0,4Z"/><path class="cls-1" d="M646.93,1848.23c2.58,0,2.58-4,0-4s-2.58,4,0,4Z"/><path class="cls-1" d="M989,1965.77c2.57,0,2.58-4,0-4s-2.58,4,0,4Z"/><path class="cls-1" d="M859.21,1755.25c2.58,0,2.58-4,0-4s-2.57,4,0,4Z"/><path class="cls-1" d="M1859.21,1685.07c2.58,0,2.58-4,0-4s-2.57,4,0,4Z"/><path class="cls-1" d="M1675,1953.49c2.58,0,2.58-4,0-4s-2.57,4,0,4Z"/><path class="cls-1" d="M1434.65,1967.53c2.58,0,2.58-4,0-4s-2.58,4,0,4Z"/><path class="cls-1" d="M1843.42,1279.81c2.58,0,2.58-4,0-4s-2.57,4,0,4Z"/><path class="cls-1" d="M1745.18,1444.72c2.57,0,2.58-4,0-4s-2.58,4,0,4Z"/><path class="cls-1" d="M1208.34,1314.9c2.57,0,2.57-4,0-4s-2.58,4,0,4Z"/><path class="cls-1" d="M1062.72,976.3c2.58,0,2.58-4,0-4s-2.58,4,0,4Z"/><path class="cls-1" d="M934.65,1243c2.58,0,2.58-4,0-4s-2.58,4,0,4Z"/><path class="cls-1" d="M815.35,1083.32c2.58,0,2.58-4,0-4s-2.57,4,0,4Z"/><path class="cls-1" d="M815.35,986.83c2.58,0,2.58-4,0-4s-2.57,4,0,4Z"/><path class="cls-1" d="M490.79,993.84c2.58,0,2.58-4,0-4s-2.58,4,0,4Z"/><path class="cls-1" d="M429.39,1058.76c2.57,0,2.58-4,0-4s-2.58,4,0,4Z"/><path class="cls-1" d="M168,978.06c2.57,0,2.57-4,0-4s-2.58,4,0,4Z"/><path class="cls-1" d="M1875,1979.06c3.86,0,3.87-6,0-6s-3.86,6,0,6Z"/><path class="cls-1" d="M597.81,1975.55c3.86,0,3.87-6,0-6s-3.87,6,0,6Z"/><path class="cls-1" d="M1241.67,1991.34c3.86,0,3.87-6,0-6s-3.87,6,0,6Z"/><path class="cls-1" d="M139.92,1451c3.86,0,3.86-6,0-6s-3.87,6,0,6Z"/><path class="cls-1" d="M908.34,2174.27c2.57,0,2.57-4,0-4s-2.58,4,0,4Z"/><path class="cls-1" d="M645.18,2186.55c2.57,0,2.58-4,0-4s-2.58,4,0,4Z"/><path class="cls-1" d="M1006.58,2474.27c2.58,0,2.58-4,0-4s-2.58,4,0,4Z"/><path class="cls-1" d="M1217.11,2670.76c2.57,0,2.58-4,0-4s-2.58,4,0,4Z"/><path class="cls-1" d="M1299.56,2283c2.58,0,2.58-4,0-4s-2.57,4,0,4Z"/><path class="cls-1" d="M1482,2181.28c2.57,0,2.58-4,0-4s-2.58,4,0,4Z"/><path class="cls-1" d="M1601.32,2277.77c2.57,0,2.58-4,0-4s-2.58,4,0,4Z"/><path class="cls-1" d="M1601.32,2277.77c2.57,0,2.58-4,0-4s-2.58,4,0,4Z"/><path class="cls-1" d="M1878.51,2151.46c2.58,0,2.58-4,0-4s-2.58,4,0,4Z"/><path class="cls-1" d="M1518.86,2642.69c2.58,0,2.58-4,0-4s-2.58,4,0,4Z"/><path class="cls-1" d="M1431.14,2862c2.58,0,2.58-4,0-4s-2.57,4,0,4Z"/><path class="cls-1" d="M1259.21,3007.6c2.58,0,2.58-4,0-4s-2.57,4,0,4Z"/><path class="cls-1" d="M464.48,2942.69c2.57,0,2.57-4,0-4s-2.58,4,0,4Z"/><path class="cls-1" d="M164.48,3007.6c2.57,0,2.57-4,0-4s-2.58,4,0,4Z"/><path class="cls-1" d="M96.06,3049.7c2.57,0,2.57-4,0-4s-2.58,4,0,4Z"/><path class="cls-1" d="M41.67,2939.18c2.57,0,2.58-4,0-4s-2.58,4,0,4Z"/><path class="cls-1" d="M394.3,2460.23c2.58,0,2.58-4,0-4s-2.58,4,0,4Z"/><path class="cls-1" d="M520.62,2290.06c2.57,0,2.58-4,0-4s-2.58,4,0,4Z"/><path class="cls-1" d="M469.74,2574.27c2.57,0,2.58-4,0-4s-2.58,4,0,4Z"/><path class="cls-1" d="M80.27,2493.56c2.57,0,2.57-4,0-4s-2.58,4,0,4Z"/><path class="cls-1" d="M168,2267.25c2.57,0,2.57-4,0-4s-2.58,4,0,4Z"/><path class="cls-1" d="M64.48,2307.6c2.57,0,2.57-4,0-4s-2.58,4,0,4Z"/><path class="cls-1" d="M248.69,2148c2.57,0,2.58-4,0-4s-2.58,4,0,4Z"/><path class="cls-1" d="M575,2658.48c2.58,0,2.58-4,0-4s-2.57,4,0,4Z"/><path class="cls-1" d="M646.93,2960.23c2.58,0,2.58-4,0-4s-2.58,4,0,4Z"/><path class="cls-1" d="M989,3077.77c2.57,0,2.58-4,0-4s-2.58,4,0,4Z"/><path class="cls-1" d="M859.21,2867.25c2.58,0,2.58-4,0-4s-2.57,4,0,4Z"/><path class="cls-1" d="M1859.21,2797.07c2.58,0,2.58-4,0-4s-2.57,4,0,4Z"/><path class="cls-1" d="M1675,3065.49c2.58,0,2.58-4,0-4s-2.57,4,0,4Z"/><path class="cls-1" d="M1434.65,3079.53c2.58,0,2.58-4,0-4s-2.58,4,0,4Z"/><path class="cls-1" d="M1843.42,2391.81c2.58,0,2.58-4,0-4s-2.57,4,0,4Z"/><path class="cls-1" d="M1745.18,2556.72c2.57,0,2.58-4,0-4s-2.58,4,0,4Z"/><path class="cls-1" d="M1208.34,2426.9c2.57,0,2.57-4,0-4s-2.58,4,0,4Z"/><path class="cls-1" d="M1062.72,2088.3c2.58,0,2.58-4,0-4s-2.58,4,0,4Z"/><path class="cls-1" d="M934.65,2355c2.58,0,2.58-4,0-4s-2.58,4,0,4Z"/><path class="cls-1" d="M815.35,2195.32c2.58,0,2.58-4,0-4s-2.57,4,0,4Z"/><path class="cls-1" d="M815.35,2098.83c2.58,0,2.58-4,0-4s-2.57,4,0,4Z"/><path class="cls-1" d="M490.79,2105.84c2.58,0,2.58-4,0-4s-2.58,4,0,4Z"/><path class="cls-1" d="M429.39,2170.76c2.57,0,2.58-4,0-4s-2.58,4,0,4Z"/><path class="cls-1" d="M168,2090.06c2.57,0,2.57-4,0-4s-2.58,4,0,4Z"/><path class="cls-1" d="M1875,3091.06c3.86,0,3.87-6,0-6s-3.86,6,0,6Z"/><path class="cls-1" d="M597.81,3087.55c3.86,0,3.87-6,0-6s-3.87,6,0,6Z"/><path class="cls-1" d="M1241.67,3103.34c3.86,0,3.87-6,0-6s-3.87,6,0,6Z"/><path class="cls-1" d="M139.92,2563c3.86,0,3.86-6,0-6s-3.87,6,0,6Z"/><path class="cls-1" d="M908.34,3188.27c2.57,0,2.57-4,0-4s-2.58,4,0,4Z"/><path class="cls-1" d="M645.18,3200.55c2.57,0,2.58-4,0-4s-2.58,4,0,4Z"/><path class="cls-1" d="M1006.58,3488.27c2.58,0,2.58-4,0-4s-2.58,4,0,4Z"/><path class="cls-1" d="M1217.11,3684.76c2.57,0,2.58-4,0-4s-2.58,4,0,4Z"/><path class="cls-1" d="M1299.56,3297c2.58,0,2.58-4,0-4s-2.57,4,0,4Z"/><path class="cls-1" d="M1482,3195.28c2.57,0,2.58-4,0-4s-2.58,4,0,4Z"/><path class="cls-1" d="M1601.32,3291.77c2.57,0,2.58-4,0-4s-2.58,4,0,4Z"/><path class="cls-1" d="M1601.32,3291.77c2.57,0,2.58-4,0-4s-2.58,4,0,4Z"/><path class="cls-1" d="M1878.51,3165.46c2.58,0,2.58-4,0-4s-2.58,4,0,4Z"/><path class="cls-1" d="M1518.86,3656.69c2.58,0,2.58-4,0-4s-2.58,4,0,4Z"/><path class="cls-1" d="M1431.14,3876c2.58,0,2.58-4,0-4s-2.57,4,0,4Z"/><path class="cls-1" d="M1259.21,4021.6c2.58,0,2.58-4,0-4s-2.57,4,0,4Z"/><path class="cls-1" d="M464.48,3956.69c2.57,0,2.57-4,0-4s-2.58,4,0,4Z"/><path class="cls-1" d="M164.48,4021.6c2.57,0,2.57-4,0-4s-2.58,4,0,4Z"/><path class="cls-1" d="M96.06,4063.7c2.57,0,2.57-4,0-4s-2.58,4,0,4Z"/><path class="cls-1" d="M41.67,3953.18c2.57,0,2.58-4,0-4s-2.58,4,0,4Z"/><path class="cls-1" d="M394.3,3474.23c2.58,0,2.58-4,0-4s-2.58,4,0,4Z"/><path class="cls-1" d="M520.62,3304.06c2.57,0,2.58-4,0-4s-2.58,4,0,4Z"/><path class="cls-1" d="M469.74,3588.27c2.57,0,2.58-4,0-4s-2.58,4,0,4Z"/><path class="cls-1" d="M80.27,3507.56c2.57,0,2.57-4,0-4s-2.58,4,0,4Z"/><path class="cls-1" d="M168,3281.25c2.57,0,2.57-4,0-4s-2.58,4,0,4Z"/><path class="cls-1" d="M64.48,3321.6c2.57,0,2.57-4,0-4s-2.58,4,0,4Z"/><path class="cls-1" d="M248.69,3162c2.57,0,2.58-4,0-4s-2.58,4,0,4Z"/><path class="cls-1" d="M575,3672.48c2.58,0,2.58-4,0-4s-2.57,4,0,4Z"/><path class="cls-1" d="M646.93,3974.23c2.58,0,2.58-4,0-4s-2.58,4,0,4Z"/><path class="cls-1" d="M989,4091.77c2.57,0,2.58-4,0-4s-2.58,4,0,4Z"/><path class="cls-1" d="M859.21,3881.25c2.58,0,2.58-4,0-4s-2.57,4,0,4Z"/><path class="cls-1" d="M1859.21,3811.07c2.58,0,2.58-4,0-4s-2.57,4,0,4Z"/><path class="cls-1" d="M1675,4079.49c2.58,0,2.58-4,0-4s-2.57,4,0,4Z"/><path class="cls-1" d="M1434.65,4093.53c2.58,0,2.58-4,0-4s-2.58,4,0,4Z"/><path class="cls-1" d="M1843.42,3405.81c2.58,0,2.58-4,0-4s-2.57,4,0,4Z"/><path class="cls-1" d="M1745.18,3570.72c2.57,0,2.58-4,0-4s-2.58,4,0,4Z"/><path class="cls-1" d="M1208.34,3440.9c2.57,0,2.57-4,0-4s-2.58,4,0,4Z"/><path class="cls-1" d="M1062.72,3102.3c2.58,0,2.58-4,0-4s-2.58,4,0,4Z"/><path class="cls-1" d="M934.65,3369c2.58,0,2.58-4,0-4s-2.58,4,0,4Z"/><path class="cls-1" d="M815.35,3209.32c2.58,0,2.58-4,0-4s-2.57,4,0,4Z"/><path class="cls-1" d="M815.35,3112.83c2.58,0,2.58-4,0-4s-2.57,4,0,4Z"/><path class="cls-1" d="M490.79,3119.84c2.58,0,2.58-4,0-4s-2.58,4,0,4Z"/><path class="cls-1" d="M429.39,3184.76c2.57,0,2.58-4,0-4s-2.58,4,0,4Z"/><path class="cls-1" d="M168,3104.06c2.57,0,2.57-4,0-4s-2.58,4,0,4Z"/><path class="cls-1" d="M1875,4105.06c3.86,0,3.87-6,0-6s-3.86,6,0,6Z"/><path class="cls-1" d="M597.81,4101.55c3.86,0,3.87-6,0-6s-3.87,6,0,6Z"/><path class="cls-1" d="M1241.67,4117.34c3.86,0,3.87-6,0-6s-3.87,6,0,6Z"/><path class="cls-1" d="M139.92,3577c3.86,0,3.86-6,0-6s-3.87,6,0,6Z"/><path class="cls-1" d="M908.34,4310.27c2.57,0,2.57-4,0-4s-2.58,4,0,4Z"/><path class="cls-1" d="M645.18,4322.55c2.57,0,2.58-4,0-4s-2.58,4,0,4Z"/><path class="cls-1" d="M1006.58,4610.27c2.58,0,2.58-4,0-4s-2.58,4,0,4Z"/><path class="cls-1" d="M1217.11,4806.76c2.57,0,2.58-4,0-4s-2.58,4,0,4Z"/><path class="cls-1" d="M1299.56,4419c2.58,0,2.58-4,0-4s-2.57,4,0,4Z"/><path class="cls-1" d="M1482,4317.28c2.57,0,2.58-4,0-4s-2.58,4,0,4Z"/><path class="cls-1" d="M1601.32,4413.77c2.57,0,2.58-4,0-4s-2.58,4,0,4Z"/><path class="cls-1" d="M1601.32,4413.77c2.57,0,2.58-4,0-4s-2.58,4,0,4Z"/><path class="cls-1" d="M1878.51,4287.46c2.58,0,2.58-4,0-4s-2.58,4,0,4Z"/><path class="cls-1" d="M1518.86,4778.69c2.58,0,2.58-4,0-4s-2.58,4,0,4Z"/><path class="cls-1" d="M1431.14,4998c2.58,0,2.58-4,0-4s-2.57,4,0,4Z"/><path class="cls-1" d="M1259.21,5143.6c2.58,0,2.58-4,0-4s-2.57,4,0,4Z"/><path class="cls-1" d="M464.48,5078.69c2.57,0,2.57-4,0-4s-2.58,4,0,4Z"/><path class="cls-1" d="M164.48,5143.6c2.57,0,2.57-4,0-4s-2.58,4,0,4Z"/><path class="cls-1" d="M96.06,5185.7c2.57,0,2.57-4,0-4s-2.58,4,0,4Z"/><path class="cls-1" d="M41.67,5075.18c2.57,0,2.58-4,0-4s-2.58,4,0,4Z"/><path class="cls-1" d="M394.3,4596.23c2.58,0,2.58-4,0-4s-2.58,4,0,4Z"/><path class="cls-1" d="M520.62,4426.06c2.57,0,2.58-4,0-4s-2.58,4,0,4Z"/><path class="cls-1" d="M469.74,4710.27c2.57,0,2.58-4,0-4s-2.58,4,0,4Z"/><path class="cls-1" d="M80.27,4629.56c2.57,0,2.57-4,0-4s-2.58,4,0,4Z"/><path class="cls-1" d="M168,4403.25c2.57,0,2.57-4,0-4s-2.58,4,0,4Z"/><path class="cls-1" d="M64.48,4443.6c2.57,0,2.57-4,0-4s-2.58,4,0,4Z"/><path class="cls-1" d="M248.69,4284c2.57,0,2.58-4,0-4s-2.58,4,0,4Z"/><path class="cls-1" d="M575,4794.48c2.58,0,2.58-4,0-4s-2.57,4,0,4Z"/><path class="cls-1" d="M646.93,5096.23c2.58,0,2.58-4,0-4s-2.58,4,0,4Z"/><path class="cls-1" d="M989,5213.77c2.57,0,2.58-4,0-4s-2.58,4,0,4Z"/><path class="cls-1" d="M859.21,5003.25c2.58,0,2.58-4,0-4s-2.57,4,0,4Z"/><path class="cls-1" d="M1859.21,4933.07c2.58,0,2.58-4,0-4s-2.57,4,0,4Z"/><path class="cls-1" d="M1675,5201.49c2.58,0,2.58-4,0-4s-2.57,4,0,4Z"/><path class="cls-1" d="M1434.65,5215.53c2.58,0,2.58-4,0-4s-2.58,4,0,4Z"/><path class="cls-1" d="M1843.42,4527.81c2.58,0,2.58-4,0-4s-2.57,4,0,4Z"/><path class="cls-1" d="M1745.18,4692.72c2.57,0,2.58-4,0-4s-2.58,4,0,4Z"/><path class="cls-1" d="M1208.34,4562.9c2.57,0,2.57-4,0-4s-2.58,4,0,4Z"/><path class="cls-1" d="M1062.72,4224.3c2.58,0,2.58-4,0-4s-2.58,4,0,4Z"/><path class="cls-1" d="M934.65,4491c2.58,0,2.58-4,0-4s-2.58,4,0,4Z"/><path class="cls-1" d="M815.35,4331.32c2.58,0,2.58-4,0-4s-2.57,4,0,4Z"/><path class="cls-1" d="M815.35,4234.83c2.58,0,2.58-4,0-4s-2.57,4,0,4Z"/><path class="cls-1" d="M490.79,4241.84c2.58,0,2.58-4,0-4s-2.58,4,0,4Z"/><path class="cls-1" d="M429.39,4306.76c2.57,0,2.58-4,0-4s-2.58,4,0,4Z"/><path class="cls-1" d="M168,4226.06c2.57,0,2.57-4,0-4s-2.58,4,0,4Z"/><path class="cls-1" d="M1875,5227.06c3.86,0,3.87-6,0-6s-3.86,6,0,6Z"/><path class="cls-1" d="M597.81,5223.55c3.86,0,3.87-6,0-6s-3.87,6,0,6Z"/><path class="cls-1" d="M1241.67,5239.34c3.86,0,3.87-6,0-6s-3.87,6,0,6Z"/><path class="cls-1" d="M139.92,4699c3.86,0,3.86-6,0-6s-3.87,6,0,6Z"/><path class="cls-1" d="M908.34,5410.27c2.57,0,2.57-4,0-4s-2.58,4,0,4Z"/><path class="cls-1" d="M645.18,5422.55c2.57,0,2.58-4,0-4s-2.58,4,0,4Z"/><path class="cls-1" d="M1006.58,5710.27c2.58,0,2.58-4,0-4s-2.58,4,0,4Z"/><path class="cls-1" d="M1217.11,5906.76c2.57,0,2.58-4,0-4s-2.58,4,0,4Z"/><path class="cls-1" d="M1299.56,5519c2.58,0,2.58-4,0-4s-2.57,4,0,4Z"/><path class="cls-1" d="M1482,5417.28c2.57,0,2.58-4,0-4s-2.58,4,0,4Z"/><path class="cls-1" d="M1601.32,5513.77c2.57,0,2.58-4,0-4s-2.58,4,0,4Z"/><path class="cls-1" d="M1601.32,5513.77c2.57,0,2.58-4,0-4s-2.58,4,0,4Z"/><path class="cls-1" d="M1878.51,5387.46c2.58,0,2.58-4,0-4s-2.58,4,0,4Z"/><path class="cls-1" d="M1518.86,5878.69c2.58,0,2.58-4,0-4s-2.58,4,0,4Z"/><path class="cls-1" d="M1431.14,6098c2.58,0,2.58-4,0-4s-2.57,4,0,4Z"/><path class="cls-1" d="M1259.21,6243.6c2.58,0,2.58-4,0-4s-2.57,4,0,4Z"/><path class="cls-1" d="M464.48,6178.69c2.57,0,2.57-4,0-4s-2.58,4,0,4Z"/><path class="cls-1" d="M164.48,6243.6c2.57,0,2.57-4,0-4s-2.58,4,0,4Z"/><path class="cls-1" d="M96.06,6285.7c2.57,0,2.57-4,0-4s-2.58,4,0,4Z"/><path class="cls-1" d="M41.67,6175.18c2.57,0,2.58-4,0-4s-2.58,4,0,4Z"/><path class="cls-1" d="M394.3,5696.23c2.58,0,2.58-4,0-4s-2.58,4,0,4Z"/><path class="cls-1" d="M520.62,5526.06c2.57,0,2.58-4,0-4s-2.58,4,0,4Z"/><path class="cls-1" d="M469.74,5810.27c2.57,0,2.58-4,0-4s-2.58,4,0,4Z"/><path class="cls-1" d="M80.27,5729.56c2.57,0,2.57-4,0-4s-2.58,4,0,4Z"/><path class="cls-1" d="M168,5503.25c2.57,0,2.57-4,0-4s-2.58,4,0,4Z"/><path class="cls-1" d="M64.48,5543.6c2.57,0,2.57-4,0-4s-2.58,4,0,4Z"/><path class="cls-1" d="M248.69,5384c2.57,0,2.58-4,0-4s-2.58,4,0,4Z"/><path class="cls-1" d="M575,5894.48c2.58,0,2.58-4,0-4s-2.57,4,0,4Z"/><path class="cls-1" d="M646.93,6196.23c2.58,0,2.58-4,0-4s-2.58,4,0,4Z"/><path class="cls-1" d="M989,6313.77c2.57,0,2.58-4,0-4s-2.58,4,0,4Z"/><path class="cls-1" d="M859.21,6103.25c2.58,0,2.58-4,0-4s-2.57,4,0,4Z"/><path class="cls-1" d="M1859.21,6033.07c2.58,0,2.58-4,0-4s-2.57,4,0,4Z"/><path class="cls-1" d="M1675,6301.49c2.58,0,2.58-4,0-4s-2.57,4,0,4Z"/><path class="cls-1" d="M1434.65,6315.53c2.58,0,2.58-4,0-4s-2.58,4,0,4Z"/><path class="cls-1" d="M1843.42,5627.81c2.58,0,2.58-4,0-4s-2.57,4,0,4Z"/><path class="cls-1" d="M1745.18,5792.72c2.57,0,2.58-4,0-4s-2.58,4,0,4Z"/><path class="cls-1" d="M1208.34,5662.9c2.57,0,2.57-4,0-4s-2.58,4,0,4Z"/><path class="cls-1" d="M1062.72,5324.3c2.58,0,2.58-4,0-4s-2.58,4,0,4Z"/><path class="cls-1" d="M934.65,5591c2.58,0,2.58-4,0-4s-2.58,4,0,4Z"/><path class="cls-1" d="M815.35,5431.32c2.58,0,2.58-4,0-4s-2.57,4,0,4Z"/><path class="cls-1" d="M815.35,5334.83c2.58,0,2.58-4,0-4s-2.57,4,0,4Z"/><path class="cls-1" d="M490.79,5341.84c2.58,0,2.58-4,0-4s-2.58,4,0,4Z"/><path class="cls-1" d="M429.39,5406.76c2.57,0,2.58-4,0-4s-2.58,4,0,4Z"/><path class="cls-1" d="M168,5326.06c2.57,0,2.57-4,0-4s-2.58,4,0,4Z"/><path class="cls-1" d="M1875,6327.06c3.86,0,3.87-6,0-6s-3.86,6,0,6Z"/><path class="cls-1" d="M597.81,6323.55c3.86,0,3.87-6,0-6s-3.87,6,0,6Z"/><path class="cls-1" d="M1241.67,6339.34c3.86,0,3.87-6,0-6s-3.87,6,0,6Z"/><path class="cls-1" d="M139.92,5799c3.86,0,3.86-6,0-6s-3.87,6,0,6Z"/><path class="cls-1" d="M908.34,6538.27c2.57,0,2.57-4,0-4s-2.58,4,0,4Z"/><path class="cls-1" d="M645.18,6550.55c2.57,0,2.58-4,0-4s-2.58,4,0,4Z"/><path class="cls-1" d="M1006.58,6838.27c2.58,0,2.58-4,0-4s-2.58,4,0,4Z"/><path class="cls-1" d="M1217.11,7034.76c2.57,0,2.58-4,0-4s-2.58,4,0,4Z"/><path class="cls-1" d="M1299.56,6647c2.58,0,2.58-4,0-4s-2.57,4,0,4Z"/><path class="cls-1" d="M1482,6545.28c2.57,0,2.58-4,0-4s-2.58,4,0,4Z"/><path class="cls-1" d="M1601.32,6641.77c2.57,0,2.58-4,0-4s-2.58,4,0,4Z"/><path class="cls-1" d="M1601.32,6641.77c2.57,0,2.58-4,0-4s-2.58,4,0,4Z"/><path class="cls-1" d="M1878.51,6515.46c2.58,0,2.58-4,0-4s-2.58,4,0,4Z"/><path class="cls-1" d="M1518.86,7006.69c2.58,0,2.58-4,0-4s-2.58,4,0,4Z"/><path class="cls-1" d="M1431.14,7226c2.58,0,2.58-4,0-4s-2.57,4,0,4Z"/><path class="cls-1" d="M1259.21,7371.6c2.58,0,2.58-4,0-4s-2.57,4,0,4Z"/><path class="cls-1" d="M464.48,7306.69c2.57,0,2.57-4,0-4s-2.58,4,0,4Z"/><path class="cls-1" d="M164.48,7371.6c2.57,0,2.57-4,0-4s-2.58,4,0,4Z"/><path class="cls-1" d="M96.06,7413.7c2.57,0,2.57-4,0-4s-2.58,4,0,4Z"/><path class="cls-1" d="M41.67,7303.18c2.57,0,2.58-4,0-4s-2.58,4,0,4Z"/><path class="cls-1" d="M394.3,6824.23c2.58,0,2.58-4,0-4s-2.58,4,0,4Z"/><path class="cls-1" d="M520.62,6654.06c2.57,0,2.58-4,0-4s-2.58,4,0,4Z"/><path class="cls-1" d="M469.74,6938.27c2.57,0,2.58-4,0-4s-2.58,4,0,4Z"/><path class="cls-1" d="M80.27,6857.56c2.57,0,2.57-4,0-4s-2.58,4,0,4Z"/><path class="cls-1" d="M168,6631.25c2.57,0,2.57-4,0-4s-2.58,4,0,4Z"/><path class="cls-1" d="M64.48,6671.6c2.57,0,2.57-4,0-4s-2.58,4,0,4Z"/><path class="cls-1" d="M248.69,6512c2.57,0,2.58-4,0-4s-2.58,4,0,4Z"/><path class="cls-1" d="M575,7022.48c2.58,0,2.58-4,0-4s-2.57,4,0,4Z"/><path class="cls-1" d="M646.93,7324.23c2.58,0,2.58-4,0-4s-2.58,4,0,4Z"/><path class="cls-1" d="M989,7441.77c2.57,0,2.58-4,0-4s-2.58,4,0,4Z"/><path class="cls-1" d="M859.21,7231.25c2.58,0,2.58-4,0-4s-2.57,4,0,4Z"/><path class="cls-1" d="M1859.21,7161.07c2.58,0,2.58-4,0-4s-2.57,4,0,4Z"/><path class="cls-1" d="M1675,7429.49c2.58,0,2.58-4,0-4s-2.57,4,0,4Z"/><path class="cls-1" d="M1434.65,7443.53c2.58,0,2.58-4,0-4s-2.58,4,0,4Z"/><path class="cls-1" d="M1843.42,6755.81c2.58,0,2.58-4,0-4s-2.57,4,0,4Z"/><path class="cls-1" d="M1745.18,6920.72c2.57,0,2.58-4,0-4s-2.58,4,0,4Z"/><path class="cls-1" d="M1208.34,6790.9c2.57,0,2.57-4,0-4s-2.58,4,0,4Z"/><path class="cls-1" d="M1062.72,6452.3c2.58,0,2.58-4,0-4s-2.58,4,0,4Z"/><path class="cls-1" d="M934.65,6719c2.58,0,2.58-4,0-4s-2.58,4,0,4Z"/><path class="cls-1" d="M815.35,6559.32c2.58,0,2.58-4,0-4s-2.57,4,0,4Z"/><path class="cls-1" d="M815.35,6462.83c2.58,0,2.58-4,0-4s-2.57,4,0,4Z"/><path class="cls-1" d="M490.79,6469.84c2.58,0,2.58-4,0-4s-2.58,4,0,4Z"/><path class="cls-1" d="M429.39,6534.76c2.57,0,2.58-4,0-4s-2.58,4,0,4Z"/><path class="cls-1" d="M168,6454.06c2.57,0,2.57-4,0-4s-2.58,4,0,4Z"/><path class="cls-1" d="M1875,7455.06c3.86,0,3.87-6,0-6s-3.86,6,0,6Z"/><path class="cls-1" d="M597.81,7451.55c3.86,0,3.87-6,0-6s-3.87,6,0,6Z"/><path class="cls-1" d="M1241.67,7467.34c3.86,0,3.87-6,0-6s-3.87,6,0,6Z"/><path class="cls-1" d="M139.92,6927c3.86,0,3.86-6,0-6s-3.87,6,0,6Z"/></g><g id="_2" data-name="2"><path class="cls-1" d="M1315.26,73.13c7.08,0,7.09-11,0-11s-7.09,11,0,11Z"/><path class="cls-1" d="M1159.12,304.71c7.08,0,7.09-11,0-11s-7.09,11,0,11Z"/><path class="cls-1" d="M825.79,295.94c7.08,0,7.09-11,0-11s-7.09,11,0,11Z"/><path class="cls-1" d="M831.05,534.54c7.08,0,7.09-11,0-11s-7.09,11,0,11Z"/><path class="cls-1" d="M971.4,715.24c7.08,0,7.09-11,0-11s-7.09,11,0,11Z"/><path class="cls-1" d="M1152.11,899.45c7.07,0,7.08-11,0-11s-7.09,11,0,11Z"/><path class="cls-1" d="M717,766.11c7.08,0,7.09-11,0-11s-7.09,11,0,11Z"/><path class="cls-1" d="M308.25,588.92c7.07,0,7.09-11,0-11s-7.09,11,0,11Z"/><path class="cls-1" d="M83.68,573.13c7.08,0,7.09-11,0-11s-7.09,11,0,11Z"/><path class="cls-1" d="M171.4,306.46c7.08,0,7.09-11,0-11s-7.09,11,0,11Z"/><path class="cls-1" d="M383.68,71.38c7.08,0,7.09-11,0-11s-7.09,11,0,11Z"/><path class="cls-1" d="M1660.88,66.11c7.08,0,7.09-11,0-11s-7.09,11,0,11Z"/><path class="cls-1" d="M1796,287.17c7.08,0,7.09-11,0-11s-7.08,11,0,11Z"/><path class="cls-1" d="M1583.68,411.73c7.08,0,7.09-11,0-11s-7.09,11,0,11Z"/><path class="cls-1" d="M467.89,974.89c7.08,0,7.09-11,0-11s-7.08,11,0,11Z"/><path class="cls-1" d="M1836.32,895.94c7.07,0,7.09-11,0-11s-7.09,11,0,11Z"/><path class="cls-1" d="M1315.26,1241.13c7.08,0,7.09-11,0-11s-7.09,11,0,11Z"/><path class="cls-1" d="M1159.12,1472.71c7.08,0,7.09-11,0-11s-7.09,11,0,11Z"/><path class="cls-1" d="M825.79,1463.94c7.08,0,7.09-11,0-11s-7.09,11,0,11Z"/><path class="cls-1" d="M831.05,1702.54c7.08,0,7.09-11,0-11s-7.09,11,0,11Z"/><path class="cls-1" d="M971.4,1883.24c7.08,0,7.09-11,0-11s-7.09,11,0,11Z"/><path class="cls-1" d="M1152.11,2067.45c7.07,0,7.08-11,0-11s-7.09,11,0,11Z"/><path class="cls-1" d="M717,1934.11c7.08,0,7.09-11,0-11s-7.09,11,0,11Z"/><path class="cls-1" d="M308.25,1756.92c7.07,0,7.09-11,0-11s-7.09,11,0,11Z"/><path class="cls-1" d="M83.68,1741.13c7.08,0,7.09-11,0-11s-7.09,11,0,11Z"/><path class="cls-1" d="M171.4,1474.46c7.08,0,7.09-11,0-11s-7.09,11,0,11Z"/><path class="cls-1" d="M383.68,1239.38c7.08,0,7.09-11,0-11s-7.09,11,0,11Z"/><path class="cls-1" d="M1660.88,1234.11c7.08,0,7.09-11,0-11s-7.09,11,0,11Z"/><path class="cls-1" d="M1796,1455.17c7.08,0,7.09-11,0-11s-7.08,11,0,11Z"/><path class="cls-1" d="M1583.68,1579.73c7.08,0,7.09-11,0-11s-7.09,11,0,11Z"/><path class="cls-1" d="M467.89,2142.89c7.08,0,7.09-11,0-11s-7.08,11,0,11Z"/><path class="cls-1" d="M1836.32,2063.94c7.07,0,7.09-11,0-11s-7.09,11,0,11Z"/><path class="cls-1" d="M1315.26,1976.13c7.08,0,7.09-11,0-11s-7.09,11,0,11Z"/><path class="cls-1" d="M1159.12,2207.71c7.08,0,7.09-11,0-11s-7.09,11,0,11Z"/><path class="cls-1" d="M825.79,2198.94c7.08,0,7.09-11,0-11s-7.09,11,0,11Z"/><path class="cls-1" d="M831.05,2437.54c7.08,0,7.09-11,0-11s-7.09,11,0,11Z"/><path class="cls-1" d="M971.4,2618.24c7.08,0,7.09-11,0-11s-7.09,11,0,11Z"/><path class="cls-1" d="M1152.11,2802.45c7.07,0,7.08-11,0-11s-7.09,11,0,11Z"/><path class="cls-1" d="M717,2669.11c7.08,0,7.09-11,0-11s-7.09,11,0,11Z"/><path class="cls-1" d="M308.25,2491.92c7.07,0,7.09-11,0-11s-7.09,11,0,11Z"/><path class="cls-1" d="M83.68,2476.13c7.08,0,7.09-11,0-11s-7.09,11,0,11Z"/><path class="cls-1" d="M171.4,2209.46c7.08,0,7.09-11,0-11s-7.09,11,0,11Z"/><path class="cls-1" d="M383.68,1974.38c7.08,0,7.09-11,0-11s-7.09,11,0,11Z"/><path class="cls-1" d="M1660.88,1969.11c7.08,0,7.09-11,0-11s-7.09,11,0,11Z"/><path class="cls-1" d="M1796,2190.17c7.08,0,7.09-11,0-11s-7.08,11,0,11Z"/><path class="cls-1" d="M1583.68,2314.73c7.08,0,7.09-11,0-11s-7.09,11,0,11Z"/><path class="cls-1" d="M467.89,2877.89c7.08,0,7.09-11,0-11s-7.08,11,0,11Z"/><path class="cls-1" d="M1836.32,2798.94c7.07,0,7.09-11,0-11s-7.09,11,0,11Z"/><path class="cls-1" d="M1315.26,3219.13c7.08,0,7.09-11,0-11s-7.09,11,0,11Z"/><path class="cls-1" d="M1159.12,3450.71c7.08,0,7.09-11,0-11s-7.09,11,0,11Z"/><path class="cls-1" d="M825.79,3441.94c7.08,0,7.09-11,0-11s-7.09,11,0,11Z"/><path class="cls-1" d="M831.05,3680.54c7.08,0,7.09-11,0-11s-7.09,11,0,11Z"/><path class="cls-1" d="M971.4,3861.24c7.08,0,7.09-11,0-11s-7.09,11,0,11Z"/><path class="cls-1" d="M1152.11,4045.45c7.07,0,7.08-11,0-11s-7.09,11,0,11Z"/><path class="cls-1" d="M717,3912.11c7.08,0,7.09-11,0-11s-7.09,11,0,11Z"/><path class="cls-1" d="M308.25,3734.92c7.07,0,7.09-11,0-11s-7.09,11,0,11Z"/><path class="cls-1" d="M83.68,3719.13c7.08,0,7.09-11,0-11s-7.09,11,0,11Z"/><path class="cls-1" d="M171.4,3452.46c7.08,0,7.09-11,0-11s-7.09,11,0,11Z"/><path class="cls-1" d="M383.68,3217.38c7.08,0,7.09-11,0-11s-7.09,11,0,11Z"/><path class="cls-1" d="M1660.88,3212.11c7.08,0,7.09-11,0-11s-7.09,11,0,11Z"/><path class="cls-1" d="M1796,3433.17c7.08,0,7.09-11,0-11s-7.08,11,0,11Z"/><path class="cls-1" d="M1583.68,3557.73c7.08,0,7.09-11,0-11s-7.09,11,0,11Z"/><path class="cls-1" d="M467.89,4120.89c7.08,0,7.09-11,0-11s-7.08,11,0,11Z"/><path class="cls-1" d="M1836.32,4041.94c7.07,0,7.09-11,0-11s-7.09,11,0,11Z"/><path class="cls-1" d="M1315.26,4335.13c7.08,0,7.09-11,0-11s-7.09,11,0,11Z"/><path class="cls-1" d="M1159.12,4566.71c7.08,0,7.09-11,0-11s-7.09,11,0,11Z"/><path class="cls-1" d="M825.79,4557.94c7.08,0,7.09-11,0-11s-7.09,11,0,11Z"/><path class="cls-1" d="M831.05,4796.54c7.08,0,7.09-11,0-11s-7.09,11,0,11Z"/><path class="cls-1" d="M971.4,4977.24c7.08,0,7.09-11,0-11s-7.09,11,0,11Z"/><path class="cls-1" d="M1152.11,5161.45c7.07,0,7.08-11,0-11s-7.09,11,0,11Z"/><path class="cls-1" d="M717,5028.11c7.08,0,7.09-11,0-11s-7.09,11,0,11Z"/><path class="cls-1" d="M308.25,4850.92c7.07,0,7.09-11,0-11s-7.09,11,0,11Z"/><path class="cls-1" d="M83.68,4835.13c7.08,0,7.09-11,0-11s-7.09,11,0,11Z"/><path class="cls-1" d="M171.4,4568.46c7.08,0,7.09-11,0-11s-7.09,11,0,11Z"/><path class="cls-1" d="M383.68,4333.38c7.08,0,7.09-11,0-11s-7.09,11,0,11Z"/><path class="cls-1" d="M1660.88,4328.11c7.08,0,7.09-11,0-11s-7.09,11,0,11Z"/><path class="cls-1" d="M1796,4549.17c7.08,0,7.09-11,0-11s-7.08,11,0,11Z"/><path class="cls-1" d="M1583.68,4673.73c7.08,0,7.09-11,0-11s-7.09,11,0,11Z"/><path class="cls-1" d="M467.89,5236.89c7.08,0,7.09-11,0-11s-7.08,11,0,11Z"/><path class="cls-1" d="M1836.32,5157.94c7.07,0,7.09-11,0-11s-7.09,11,0,11Z"/><path class="cls-1" d="M1315.26,5571.13c7.08,0,7.09-11,0-11s-7.09,11,0,11Z"/><path class="cls-1" d="M1159.12,5802.71c7.08,0,7.09-11,0-11s-7.09,11,0,11Z"/><path class="cls-1" d="M825.79,5793.94c7.08,0,7.09-11,0-11s-7.09,11,0,11Z"/><path class="cls-1" d="M831.05,6032.54c7.08,0,7.09-11,0-11s-7.09,11,0,11Z"/><path class="cls-1" d="M971.4,6213.24c7.08,0,7.09-11,0-11s-7.09,11,0,11Z"/><path class="cls-1" d="M1152.11,6397.45c7.07,0,7.08-11,0-11s-7.09,11,0,11Z"/><path class="cls-1" d="M717,6264.11c7.08,0,7.09-11,0-11s-7.09,11,0,11Z"/><path class="cls-1" d="M308.25,6086.92c7.07,0,7.09-11,0-11s-7.09,11,0,11Z"/><path class="cls-1" d="M83.68,6071.13c7.08,0,7.09-11,0-11s-7.09,11,0,11Z"/><path class="cls-1" d="M171.4,5804.46c7.08,0,7.09-11,0-11s-7.09,11,0,11Z"/><path class="cls-1" d="M383.68,5569.38c7.08,0,7.09-11,0-11s-7.09,11,0,11Z"/><path class="cls-1" d="M1660.88,5564.11c7.08,0,7.09-11,0-11s-7.09,11,0,11Z"/><path class="cls-1" d="M1796,5785.17c7.08,0,7.09-11,0-11s-7.08,11,0,11Z"/><path class="cls-1" d="M1583.68,5909.73c7.08,0,7.09-11,0-11s-7.09,11,0,11Z"/><path class="cls-1" d="M467.89,6472.89c7.08,0,7.09-11,0-11s-7.08,11,0,11Z"/><path class="cls-1" d="M1836.32,6393.94c7.07,0,7.09-11,0-11s-7.09,11,0,11Z"/><path class="cls-1" d="M1315.26,6674.13c7.08,0,7.09-11,0-11s-7.09,11,0,11Z"/><path class="cls-1" d="M1159.12,6905.71c7.08,0,7.09-11,0-11s-7.09,11,0,11Z"/><path class="cls-1" d="M825.79,6896.94c7.08,0,7.09-11,0-11s-7.09,11,0,11Z"/><path class="cls-1" d="M831.05,7135.54c7.08,0,7.09-11,0-11s-7.09,11,0,11Z"/><path class="cls-1" d="M971.4,7316.24c7.08,0,7.09-11,0-11s-7.09,11,0,11Z"/><path class="cls-1" d="M1152.11,7500.45c7.07,0,7.08-11,0-11s-7.09,11,0,11Z"/><path class="cls-1" d="M717,7367.11c7.08,0,7.09-11,0-11s-7.09,11,0,11Z"/><path class="cls-1" d="M308.25,7189.92c7.07,0,7.09-11,0-11s-7.09,11,0,11Z"/><path class="cls-1" d="M83.68,7174.13c7.08,0,7.09-11,0-11s-7.09,11,0,11Z"/><path class="cls-1" d="M171.4,6907.46c7.08,0,7.09-11,0-11s-7.09,11,0,11Z"/><path class="cls-1" d="M383.68,6672.38c7.08,0,7.09-11,0-11s-7.09,11,0,11Z"/><path class="cls-1" d="M1660.88,6667.11c7.08,0,7.09-11,0-11s-7.09,11,0,11Z"/><path class="cls-1" d="M1796,6888.17c7.08,0,7.09-11,0-11s-7.08,11,0,11Z"/><path class="cls-1" d="M1583.68,7012.73c7.08,0,7.09-11,0-11s-7.09,11,0,11Z"/><path class="cls-1" d="M467.89,7575.89c7.08,0,7.09-11,0-11s-7.08,11,0,11Z"/><path class="cls-1" d="M1836.32,7496.94c7.07,0,7.09-11,0-11s-7.09,11,0,11Z"/></g><g id="_3" data-name="3"><path class="cls-1" d="M1396,341.13c10.94,0,11-17,0-17s-11,17,0,17Z"/><path class="cls-1" d="M1367.89,580c9,0,9-14,0-14s-9,14,0,14Z"/><path class="cls-1" d="M1669.65,655.42c9,0,9-14,0-14s-9,14,0,14Z"/><path class="cls-1" d="M1869.65,576.47c9,0,9-14,0-14s-9,14,0,14Z"/><path class="cls-1" d="M1467.89,881.74c9,0,9-14,0-14s-9,14,0,14Z"/><path class="cls-1" d="M1150.35,676.47c9,0,9-14,0-14s-9,14,0,14Z"/><path class="cls-1" d="M760.88,960.68c9,0,9-14,0-14s-9,14,0,14Z"/><path class="cls-1" d="M481.93,695.77c9,0,9-14,0-14s-9,14,0,14Z"/><path class="cls-1" d="M346.84,767.7c9,0,9-14,0-14s-9,14,0,14Z"/><path class="cls-1" d="M134.56,666c9,0,9-14,0-14s-9,14,0,14Z"/><path class="cls-1" d="M134.56,666c9,0,9-14,0-14s-9,14,0,14Z"/><path class="cls-1" d="M276.67,448.4c9,0,9-14,0-14s-9,14,0,14Z"/><path class="cls-1" d="M325.79,187c9,0,9-14,0-14s-9,14,0,14Z"/><path class="cls-1" d="M50.35,11.56c9,0,9-14,0-14s-9,14,0,14Z"/><path class="cls-1" d="M634.56,395.77c9,0,9-14,0-14s-9,14,0,14Z"/><path class="cls-1" d="M571.4,266c9,0,9-14,0-14s-9,14,0,14Z"/><path class="cls-1" d="M1041.58,487c9,0,9-14,0-14s-9,14,0,14Z"/><path class="cls-1" d="M1110,106.3c9,0,9-14,0-14s-9,14,0,14Z"/><path class="cls-1" d="M1778.42,34.37c9,0,9-14,0-14s-9,14,0,14Z"/><path class="cls-1" d="M178.42,983.49c9,0,9-14,0-14s-9,14,0,14Z"/><path class="cls-1" d="M1396,1651.13c10.94,0,11-17,0-17s-11,17,0,17Z"/><path class="cls-1" d="M1367.89,1890c9,0,9-14,0-14s-9,14,0,14Z"/><path class="cls-1" d="M1669.65,1965.42c9,0,9-14,0-14s-9,14,0,14Z"/><path class="cls-1" d="M1869.65,1886.47c9,0,9-14,0-14s-9,14,0,14Z"/><path class="cls-1" d="M1467.89,2191.74c9,0,9-14,0-14s-9,14,0,14Z"/><path class="cls-1" d="M1150.35,1986.47c9,0,9-14,0-14s-9,14,0,14Z"/><path class="cls-1" d="M760.88,2270.68c9,0,9-14,0-14s-9,14,0,14Z"/><path class="cls-1" d="M481.93,2005.77c9,0,9-14,0-14s-9,14,0,14Z"/><path class="cls-1" d="M346.84,2077.7c9,0,9-14,0-14s-9,14,0,14Z"/><path class="cls-1" d="M134.56,1976c9,0,9-14,0-14s-9,14,0,14Z"/><path class="cls-1" d="M134.56,1976c9,0,9-14,0-14s-9,14,0,14Z"/><path class="cls-1" d="M276.67,1758.4c9,0,9-14,0-14s-9,14,0,14Z"/><path class="cls-1" d="M325.79,1497c9,0,9-14,0-14s-9,14,0,14Z"/><path class="cls-1" d="M50.35,1321.56c9,0,9-14,0-14s-9,14,0,14Z"/><path class="cls-1" d="M634.56,1705.77c9,0,9-14,0-14s-9,14,0,14Z"/><path class="cls-1" d="M571.4,1576c9,0,9-14,0-14s-9,14,0,14Z"/><path class="cls-1" d="M639.82,1300.51c9,0,9-14,0-14s-9,14,0,14Z"/><path class="cls-1" d="M1041.58,1797c9,0,9-14,0-14s-9,14,0,14Z"/><path class="cls-1" d="M1110,1416.3c9,0,9-14,0-14s-9,14,0,14Z"/><path class="cls-1" d="M1778.42,1344.37c9,0,9-14,0-14s-9,14,0,14Z"/><path class="cls-1" d="M178.42,2293.49c9,0,9-14,0-14s-9,14,0,14Z"/><path class="cls-1" d="M1396,2949.13c10.94,0,11-17,0-17s-11,17,0,17Z"/><path class="cls-1" d="M1367.89,3188c9,0,9-14,0-14s-9,14,0,14Z"/><path class="cls-1" d="M1669.65,3263.42c9,0,9-14,0-14s-9,14,0,14Z"/><path class="cls-1" d="M1869.65,3184.47c9,0,9-14,0-14s-9,14,0,14Z"/><path class="cls-1" d="M1467.89,3489.74c9,0,9-14,0-14s-9,14,0,14Z"/><path class="cls-1" d="M1150.35,3284.47c9,0,9-14,0-14s-9,14,0,14Z"/><path class="cls-1" d="M760.88,3568.68c9,0,9-14,0-14s-9,14,0,14Z"/><path class="cls-1" d="M481.93,3303.77c9,0,9-14,0-14s-9,14,0,14Z"/><path class="cls-1" d="M346.84,3375.7c9,0,9-14,0-14s-9,14,0,14Z"/><path class="cls-1" d="M134.56,3274c9,0,9-14,0-14s-9,14,0,14Z"/><path class="cls-1" d="M134.56,3274c9,0,9-14,0-14s-9,14,0,14Z"/><path class="cls-1" d="M276.67,3056.4c9,0,9-14,0-14s-9,14,0,14Z"/><path class="cls-1" d="M325.79,2795c9,0,9-14,0-14s-9,14,0,14Z"/><path class="cls-1" d="M50.35,2619.56c9,0,9-14,0-14s-9,14,0,14Z"/><path class="cls-1" d="M634.56,3003.77c9,0,9-14,0-14s-9,14,0,14Z"/><path class="cls-1" d="M571.4,2874c9,0,9-14,0-14s-9,14,0,14Z"/><path class="cls-1" d="M639.82,2598.51c9,0,9-14,0-14s-9,14,0,14Z"/><path class="cls-1" d="M1041.58,3095c9,0,9-14,0-14s-9,14,0,14Z"/><path class="cls-1" d="M1110,2714.3c9,0,9-14,0-14s-9,14,0,14Z"/><path class="cls-1" d="M1778.42,2642.37c9,0,9-14,0-14s-9,14,0,14Z"/><path class="cls-1" d="M178.42,3591.49c9,0,9-14,0-14s-9,14,0,14Z"/><path class="cls-1" d="M1396,4121.13c10.94,0,11-17,0-17s-11,17,0,17Z"/><path class="cls-1" d="M1367.89,4360c9,0,9-14,0-14s-9,14,0,14Z"/><path class="cls-1" d="M1669.65,4435.42c9,0,9-14,0-14s-9,14,0,14Z"/><path class="cls-1" d="M1869.65,4356.47c9,0,9-14,0-14s-9,14,0,14Z"/><path class="cls-1" d="M1467.89,4661.74c9,0,9-14,0-14s-9,14,0,14Z"/><path class="cls-1" d="M1150.35,4456.47c9,0,9-14,0-14s-9,14,0,14Z"/><path class="cls-1" d="M760.88,4740.68c9,0,9-14,0-14s-9,14,0,14Z"/><path class="cls-1" d="M481.93,4475.77c9,0,9-14,0-14s-9,14,0,14Z"/><path class="cls-1" d="M346.84,4547.7c9,0,9-14,0-14s-9,14,0,14Z"/><path class="cls-1" d="M134.56,4446c9,0,9-14,0-14s-9,14,0,14Z"/><path class="cls-1" d="M134.56,4446c9,0,9-14,0-14s-9,14,0,14Z"/><path class="cls-1" d="M276.67,4228.4c9,0,9-14,0-14s-9,14,0,14Z"/><path class="cls-1" d="M325.79,3967c9,0,9-14,0-14s-9,14,0,14Z"/><path class="cls-1" d="M50.35,3791.56c9,0,9-14,0-14s-9,14,0,14Z"/><path class="cls-1" d="M634.56,4175.77c9,0,9-14,0-14s-9,14,0,14Z"/><path class="cls-1" d="M571.4,4046c9,0,9-14,0-14s-9,14,0,14Z"/><path class="cls-1" d="M639.82,3770.51c9,0,9-14,0-14s-9,14,0,14Z"/><path class="cls-1" d="M1041.58,4267c9,0,9-14,0-14s-9,14,0,14Z"/><path class="cls-1" d="M1110,3886.3c9,0,9-14,0-14s-9,14,0,14Z"/><path class="cls-1" d="M1778.42,3814.37c9,0,9-14,0-14s-9,14,0,14Z"/><path class="cls-1" d="M178.42,4763.49c9,0,9-14,0-14s-9,14,0,14Z"/><path class="cls-1" d="M1396,5360.13c10.94,0,11-17,0-17s-11,17,0,17Z"/><path class="cls-1" d="M1367.89,5599c9,0,9-14,0-14s-9,14,0,14Z"/><path class="cls-1" d="M1669.65,5674.42c9,0,9-14,0-14s-9,14,0,14Z"/><path class="cls-1" d="M1869.65,5595.47c9,0,9-14,0-14s-9,14,0,14Z"/><path class="cls-1" d="M1467.89,5900.74c9,0,9-14,0-14s-9,14,0,14Z"/><path class="cls-1" d="M1150.35,5695.47c9,0,9-14,0-14s-9,14,0,14Z"/><path class="cls-1" d="M760.88,5979.68c9,0,9-14,0-14s-9,14,0,14Z"/><path class="cls-1" d="M481.93,5714.77c9,0,9-14,0-14s-9,14,0,14Z"/><path class="cls-1" d="M346.84,5786.7c9,0,9-14,0-14s-9,14,0,14Z"/><path class="cls-1" d="M134.56,5685c9,0,9-14,0-14s-9,14,0,14Z"/><path class="cls-1" d="M134.56,5685c9,0,9-14,0-14s-9,14,0,14Z"/><path class="cls-1" d="M276.67,5467.4c9,0,9-14,0-14s-9,14,0,14Z"/><path class="cls-1" d="M325.79,5206c9,0,9-14,0-14s-9,14,0,14Z"/><path class="cls-1" d="M50.35,5030.56c9,0,9-14,0-14s-9,14,0,14Z"/><path class="cls-1" d="M634.56,5414.77c9,0,9-14,0-14s-9,14,0,14Z"/><path class="cls-1" d="M571.4,5285c9,0,9-14,0-14s-9,14,0,14Z"/><path class="cls-1" d="M639.82,5009.51c9,0,9-14,0-14s-9,14,0,14Z"/><path class="cls-1" d="M1041.58,5506c9,0,9-14,0-14s-9,14,0,14Z"/><path class="cls-1" d="M1110,5125.3c9,0,9-14,0-14s-9,14,0,14Z"/><path class="cls-1" d="M1778.42,5053.37c9,0,9-14,0-14s-9,14,0,14Z"/><path class="cls-1" d="M178.42,6002.49c9,0,9-14,0-14s-9,14,0,14Z"/><path class="cls-1" d="M1396,6679.13c10.94,0,11-17,0-17s-11,17,0,17Z"/><path class="cls-1" d="M1367.89,6918c9,0,9-14,0-14s-9,14,0,14Z"/><path class="cls-1" d="M1669.65,6993.42c9,0,9-14,0-14s-9,14,0,14Z"/><path class="cls-1" d="M1869.65,6914.47c9,0,9-14,0-14s-9,14,0,14Z"/><path class="cls-1" d="M1467.89,7219.74c9,0,9-14,0-14s-9,14,0,14Z"/><path class="cls-1" d="M1150.35,7014.47c9,0,9-14,0-14s-9,14,0,14Z"/><path class="cls-1" d="M760.88,7298.68c9,0,9-14,0-14s-9,14,0,14Z"/><path class="cls-1" d="M481.93,7033.77c9,0,9-14,0-14s-9,14,0,14Z"/><path class="cls-1" d="M346.84,7105.7c9,0,9-14,0-14s-9,14,0,14Z"/><path class="cls-1" d="M134.56,7004c9,0,9-14,0-14s-9,14,0,14Z"/><path class="cls-1" d="M134.56,7004c9,0,9-14,0-14s-9,14,0,14Z"/><path class="cls-1" d="M276.67,6786.4c9,0,9-14,0-14s-9,14,0,14Z"/><path class="cls-1" d="M325.79,6525c9,0,9-14,0-14s-9,14,0,14Z"/><path class="cls-1" d="M50.35,6349.56c9,0,9-14,0-14s-9,14,0,14Z"/><path class="cls-1" d="M634.56,6733.77c9,0,9-14,0-14s-9,14,0,14Z"/><path class="cls-1" d="M571.4,6604c9,0,9-14,0-14s-9,14,0,14Z"/><path class="cls-1" d="M639.82,6328.51c9,0,9-14,0-14s-9,14,0,14Z"/><path class="cls-1" d="M1041.58,6825c9,0,9-14,0-14s-9,14,0,14Z"/><path class="cls-1" d="M1110,6444.3c9,0,9-14,0-14s-9,14,0,14Z"/><path class="cls-1" d="M1778.42,6372.37c9,0,9-14,0-14s-9,14,0,14Z"/><path class="cls-1" d="M178.42,7321.49c9,0,9-14,0-14s-9,14,0,14Z"/><path class="cls-1" d="M1396,7562.13c10.94,0,11-17,0-17s-11,17,0,17Z"/><path class="cls-1" d="M276.67,7669.4c9,0,9-14,0-14s-9,14,0,14Z"/><path class="cls-1" d="M325.79,7408c9,0,9-14,0-14s-9,14,0,14Z"/><path class="cls-1" d="M50.35,7232.56c9,0,9-14,0-14s-9,14,0,14Z"/><path class="cls-1" d="M634.56,7616.77c9,0,9-14,0-14s-9,14,0,14Z"/><path class="cls-1" d="M571.4,7487c9,0,9-14,0-14s-9,14,0,14Z"/><path class="cls-1" d="M639.82,7211.51c9,0,9-14,0-14s-9,14,0,14Z"/><path class="cls-1" d="M1110,7327.3c9,0,9-14,0-14s-9,14,0,14Z"/><path class="cls-1" d="M1778.42,7255.37c9,0,9-14,0-14s-9,14,0,14Z"/><path class="cls-1" d="M1290.68,4923.11c12.23,0,12.25-19,0-19s-12.24,19,0,19Z"/><path class="cls-1" d="M1648.39,4936.87c12.22,0,12.24-19,0-19s-12.25,19,0,19Z"/><path class="cls-1" d="M1744.69,5407.39c12.23,0,12.25-19,0-19s-12.24,19,0,19Z"/><path class="cls-1" d="M481.71,4928.61c12.23,0,12.25-19,0-19s-12.24,19,0,19Z"/><path class="cls-1" d="M1596.11,4199.44c12.22,0,12.24-19,0-19s-12.25,19,0,19Z"/><path class="cls-1" d="M1351.22,3698.65c12.22,0,12.24-19,0-19s-12.25,19,0,19Z"/><path class="cls-1" d="M1056.8,3635.37c12.22,0,12.24-19,0-19s-12.25,19,0,19Z"/><path class="cls-1" d="M630.3,3437.25c12.22,0,12.25-19,0-19s-12.25,19,0,19Z"/><path class="cls-1" d="M1634.63,2961.23c12.23,0,12.25-19,0-19s-12.25,19,0,19Z"/><path class="cls-1" d="M1384.24,2474.19c12.22,0,12.24-19,0-19s-12.25,19,0,19Z"/><path class="cls-1" d="M611,2457.68c12.22,0,12.24-19,0-19s-12.25,19,0,19Z"/><path class="cls-1" d="M176.29,2760.36c12.22,0,12.24-19,0-19s-12.25,19,0,19Z"/><path class="cls-1" d="M1769.46,1780.79c12.22,0,12.24-19,0-19s-12.25,19,0,19Z"/><path class="cls-1" d="M1494.3,1390.07c12.22,0,12.25-19,0-19s-12.25,19,0,19Z"/><path class="cls-1" d="M1717.18,1098.4c12.22,0,12.24-19,0-19s-12.25,19,0,19Z"/><path class="cls-1" d="M1109.08,6012.74c12.22,0,12.24-19,0-19s-12.25,19,0,19Z"/><path class="cls-1" d="M1739.19,6111.8c12.23,0,12.25-19,0-19s-12.24,19,0,19Z"/><path class="cls-1" d="M558.76,6059.52c12.22,0,12.24-19,0-19s-12.25,19,0,19Z"/><path class="cls-1" d="M1675.9,7605.91c12.23,0,12.25-19,0-19s-12.24,19,0,19Z"/></g></svg>