<svg xmlns="http://www.w3.org/2000/svg" viewBox="0 0 1920 1080"><defs><style>.cls-1{fill:#fff;}</style></defs><g id="bg"><rect width="1920" height="1080"/></g><g id="_1" data-name="1"><path class="cls-1" d="M902.11,106c2.57,0,2.57-4,0-4s-2.58,4,0,4Z"/><path class="cls-1" d="M639,118.32c2.57,0,2.58-4,0-4s-2.58,4,0,4Z"/><path class="cls-1" d="M1000.35,406c2.57,0,2.58-4,0-4s-2.58,4,0,4Z"/><path class="cls-1" d="M1210.88,602.53c2.57,0,2.58-4,0-4s-2.58,4,0,4Z"/><path class="cls-1" d="M1293.33,214.81c2.58,0,2.58-4,0-4s-2.57,4,0,4Z"/><path class="cls-1" d="M1475.79,113.05c2.57,0,2.58-4,0-4s-2.58,4,0,4Z"/><path class="cls-1" d="M1595.09,209.54c2.57,0,2.58-4,0-4s-2.58,4,0,4Z"/><path class="cls-1" d="M1595.09,209.54c2.57,0,2.58-4,0-4s-2.58,4,0,4Z"/><path class="cls-1" d="M1872.28,83.23c2.57,0,2.58-4,0-4s-2.58,4,0,4Z"/><path class="cls-1" d="M1512.63,574.46c2.58,0,2.58-4,0-4s-2.58,4,0,4Z"/><path class="cls-1" d="M1424.91,793.75c2.58,0,2.58-4,0-4s-2.58,4,0,4Z"/><path class="cls-1" d="M1253,939.37c2.58,0,2.58-4,0-4s-2.58,4,0,4Z"/><path class="cls-1" d="M458.25,874.46c2.57,0,2.57-4,0-4s-2.58,4,0,4Z"/><path class="cls-1" d="M158.25,939.37c2.57,0,2.57-4,0-4s-2.58,4,0,4Z"/><path class="cls-1" d="M89.82,981.47c2.58,0,2.58-4,0-4s-2.57,4,0,4Z"/><path class="cls-1" d="M35.44,871c2.57,0,2.58-4,0-4s-2.58,4,0,4Z"/><path class="cls-1" d="M388.07,392c2.57,0,2.58-4,0-4s-2.58,4,0,4Z"/><path class="cls-1" d="M514.39,221.82c2.57,0,2.57-4,0-4s-2.58,4,0,4Z"/><path class="cls-1" d="M463.51,506c2.57,0,2.58-4,0-4s-2.58,4,0,4Z"/><path class="cls-1" d="M74,425.33c2.57,0,2.57-4,0-4s-2.58,4,0,4Z"/><path class="cls-1" d="M161.75,199c2.58,0,2.58-4,0-4s-2.57,4,0,4Z"/><path class="cls-1" d="M58.25,239.37c2.57,0,2.57-4,0-4s-2.58,4,0,4Z"/><path class="cls-1" d="M242.46,79.72c2.57,0,2.57-4,0-4s-2.58,4,0,4Z"/><path class="cls-1" d="M568.77,590.25c2.58,0,2.58-4,0-4s-2.58,4,0,4Z"/><path class="cls-1" d="M640.7,892c2.58,0,2.58-4,0-4s-2.58,4,0,4Z"/><path class="cls-1" d="M982.81,1009.54c2.57,0,2.58-4,0-4s-2.58,4,0,4Z"/><path class="cls-1" d="M853,799c2.58,0,2.58-4,0-4s-2.58,4,0,4Z"/><path class="cls-1" d="M1853,728.84c2.58,0,2.58-4,0-4s-2.58,4,0,4Z"/><path class="cls-1" d="M1668.77,997.26c2.58,0,2.58-4,0-4s-2.58,4,0,4Z"/><path class="cls-1" d="M1428.42,1011.3c2.57,0,2.58-4,0-4s-2.58,4,0,4Z"/><path class="cls-1" d="M1837.19,323.58c2.58,0,2.58-4,0-4s-2.58,4,0,4Z"/><path class="cls-1" d="M1739,488.49c2.57,0,2.58-4,0-4s-2.58,4,0,4Z"/><path class="cls-1" d="M1202.11,358.67c2.57,0,2.57-4,0-4s-2.58,4,0,4Z"/><path class="cls-1" d="M1056.49,20.07c2.58,0,2.58-4,0-4s-2.58,4,0,4Z"/><path class="cls-1" d="M928.42,286.74c2.57,0,2.58-4,0-4s-2.58,4,0,4Z"/><path class="cls-1" d="M809.12,127.09c2.58,0,2.58-4,0-4s-2.58,4,0,4Z"/><path class="cls-1" d="M809.12,30.6c2.58,0,2.58-4,0-4s-2.58,4,0,4Z"/><path class="cls-1" d="M484.56,37.61c2.58,0,2.58-4,0-4s-2.58,4,0,4Z"/><path class="cls-1" d="M423.16,102.53c2.57,0,2.58-4,0-4s-2.58,4,0,4Z"/><path class="cls-1" d="M161.75,21.82c2.58,0,2.58-4,0-4s-2.57,4,0,4Z"/><path class="cls-1" d="M1868.77,1022.82c3.86,0,3.87-6,0-6s-3.87,6,0,6Z"/><path class="cls-1" d="M591.58,1019.32c3.86,0,3.87-6,0-6s-3.87,6,0,6Z"/><path class="cls-1" d="M1235.44,1035.11c3.86,0,3.87-6,0-6s-3.87,6,0,6Z"/><path class="cls-1" d="M133.68,494.75c3.86,0,3.87-6,0-6s-3.86,6,0,6Z"/></g><g id="_2" data-name="2"><path class="cls-1" d="M1265.26,83.22c7.08,0,7.09-11,0-11s-7.09,11,0,11Z"/><path class="cls-1" d="M1109.12,314.8c7.08,0,7.09-11,0-11s-7.09,11,0,11Z"/><path class="cls-1" d="M775.79,306c7.08,0,7.09-11,0-11s-7.09,11,0,11Z"/><path class="cls-1" d="M781.05,544.62c7.08,0,7.09-11,0-11s-7.09,11,0,11Z"/><path class="cls-1" d="M921.4,725.32c7.08,0,7.09-11,0-11s-7.09,11,0,11Z"/><path class="cls-1" d="M1102.11,909.54c7.07,0,7.08-11,0-11s-7.09,11,0,11Z"/><path class="cls-1" d="M667,776.2c7.08,0,7.09-11,0-11s-7.09,11,0,11Z"/><path class="cls-1" d="M258.25,599c7.07,0,7.09-11,0-11s-7.09,11,0,11Z"/><path class="cls-1" d="M33.68,583.22c7.08,0,7.09-11,0-11s-7.09,11,0,11Z"/><path class="cls-1" d="M121.4,316.55c7.08,0,7.09-11,0-11s-7.09,11,0,11Z"/><path class="cls-1" d="M333.68,81.46c7.08,0,7.09-11,0-11s-7.09,11,0,11Z"/><path class="cls-1" d="M1610.88,76.2c7.08,0,7.09-11,0-11s-7.09,11,0,11Z"/><path class="cls-1" d="M1746,297.25c7.08,0,7.09-11,0-11s-7.08,11,0,11Z"/><path class="cls-1" d="M1533.68,421.82c7.08,0,7.09-11,0-11s-7.09,11,0,11Z"/><path class="cls-1" d="M417.89,985c7.08,0,7.09-11,0-11s-7.08,11,0,11Z"/><path class="cls-1" d="M1786.32,906c7.07,0,7.09-11,0-11s-7.09,11,0,11Z"/></g><g id="_3" data-name="3"><path class="cls-1" d="M1388.07,384.46c10.94,0,11-17,0-17s-11,17,0,17Z"/><path class="cls-1" d="M1360,623.32c9,0,9-14,0-14s-9,14,0,14Z"/><path class="cls-1" d="M1661.75,698.75c9,0,9-14,0-14s-9,14,0,14Z"/><path class="cls-1" d="M1861.75,619.81c9,0,9-14,0-14s-9,14,0,14Z"/><path class="cls-1" d="M1460,925.07c9,0,9-14,0-14s-9,14,0,14Z"/><path class="cls-1" d="M1142.46,719.81c9,0,9-14,0-14s-9,14,0,14Z"/><path class="cls-1" d="M753,1004c9,0,9-14,0-14s-9,14,0,14Z"/><path class="cls-1" d="M474,739.11c9,0,9-14,0-14s-9,14,0,14Z"/><path class="cls-1" d="M339,811c9,0,9-14,0-14s-9,14,0,14Z"/><path class="cls-1" d="M126.67,709.28c9,0,9-14,0-14s-9,14,0,14Z"/><path class="cls-1" d="M126.67,709.28c9,0,9-14,0-14s-9,14,0,14Z"/><path class="cls-1" d="M268.77,491.74c9,0,9-14,0-14s-9,14,0,14Z"/><path class="cls-1" d="M317.89,230.33c9,0,9-14,0-14s-9,14,0,14Z"/><path class="cls-1" d="M42.46,54.89c9,0,9-14,0-14s-9,14,0,14Z"/><path class="cls-1" d="M626.67,439.11c9,0,9-14,0-14s-9,14,0,14Z"/><path class="cls-1" d="M563.51,309.28c9,0,9-14,0-14s-9,14,0,14Z"/><path class="cls-1" d="M631.93,33.84c9,0,9-14,0-14s-9,14,0,14Z"/><path class="cls-1" d="M1033.68,530.33c9,0,9-14,0-14s-9,14,0,14Z"/><path class="cls-1" d="M1102.11,149.63c9,0,9-14,0-14s-9,14,0,14Z"/><path class="cls-1" d="M1770.53,77.7c9,0,9-14,0-14s-9,14,0,14Z"/><path class="cls-1" d="M170.53,1026.82c9,0,9-14,0-14s-9,14,0,14Z"/></g></svg>